#!OML:ASF X:\für Bonn\!DataBase\2005_08_11_Bastian_Final\c3d\Bastian.ASF
:FULLY-SPECIFIED
:DEGREES
157
root -6.17579 17.9447 -3.69031 151.872 -43.4489 -167.429
lowerback 12.6452 -3.96439 -0.656559
upperback 3.34826 -5.54178 0.873392
thorax -3.39731 -2.85004 2.12546
lowerneck 3.16861 -15.09 -12.0661
upperneck -2.01641 -20.9632 15.2198
head 1.78402 -10.6782 5.77024
rclavicle -3.77691e-015 -2.54444e-014
rhumerus -299.879 14.9596 -323.67
rradius 41.4829
rwrist -85.6712
rhand -46.3675 1060.99
rfingers 7.12502
rthumb -19.0991 -48.0883
lclavicle -3.77691e-015 -2.54444e-014
lhumerus 97.9759 -9.47974 45.496
lradius 25.5407
lwrist -136.174
lhand -22.0028 -0.38645
lfingers 7.12502
lthumb 4.40604 29.5477
rfemur -4.13929 -8.26 22.9098
rtibia 47.4123
rfoot 6.16036 7.36739
rtoes -11.3463
lfemur 3.55492 4.81106 -8.68526
ltibia 41.585
lfoot -0.0331406 -6.71611
ltoes -15.4698
158
root -6.1446 17.5995 -3.70558 151.155 -43.0918 -167.471
lowerback 13.5618 -3.85328 -0.587174
upperback 3.6002 -5.42002 0.91546
thorax -3.63755 -2.80302 2.17622
lowerneck 3.6134 -15.0144 -12.1072
upperneck -2.59862 -20.8473 15.3596
head 1.54714 -10.6463 5.89113
rclavicle -2.04748e-014 1.11319e-014
rhumerus -299.935 14.2354 -324.779
rradius 41.3226
rwrist -84.5064
rhand -46.0696 1061.1
rfingers 7.12502
rthumb -18.8126 -48.0085
lclavicle -2.04748e-014 1.11319e-014
lhumerus 97.697 -8.79335 44.604
lradius 26.1537
lwrist -136.693
lhand -22.042 -0.409832
lfingers 7.12502
lthumb 4.36818 29.5251
rfemur -4.13491 -8.84124 22.5591
rtibia 49.611
rfoot 1.28825 8.78613
rtoes -6.5099
lfemur 3.74528 5.46491 -8.33282
ltibia 43.7759
lfoot -4.36815 -8.14543
ltoes -10.4277
159
root -6.11206 17.2538 -3.71719 150.469 -42.7489 -167.547
lowerback 14.448 -3.73127 -0.54251
upperback 3.86356 -5.28966 0.9392
thorax -3.84631 -2.75337 2.21467
lowerneck 4.28674 -14.9112 -12.0746
upperneck -3.36917 -20.7019 15.5777
head 1.21627 -10.6144 6.05719
rclavicle -1.16289e-014 -1.27222e-014
rhumerus -300.036 13.4818 -325.867
rradius 41.3605
rwrist -83.6421
rhand -46.0002 1061.29
rfingers 7.12502
rthumb -18.7459 -47.8289
lclavicle -1.16289e-014 -1.27222e-014
lhumerus 97.3312 -8.31373 44.1115
lradius 26.8707
lwrist -137.619
lhand -21.9117 -0.0719033
lfingers 7.12502
lthumb 4.494 29.8604
rfemur -4.16233 -9.56351 22.1618
rtibia 51.9744
rfoot -3.61774 10.2792
rtoes -2.02367
lfemur 3.79677 6.09375 -7.99043
ltibia 46.2352
lfoot -8.86041 -9.25814
ltoes -5.64122
160
root -6.07993 16.918 -3.72649 149.843 -42.4209 -167.751
lowerback 15.3601 -3.5836 -0.612051
upperback 4.13232 -5.14615 0.949586
thorax -4.05216 -2.69824 2.29958
lowerneck 5.02743 -14.8278 -11.966
upperneck -4.16853 -20.5779 15.7197
head 0.852923 -10.595 6.19936
rclavicle 1.13307e-013 -3.18055e-015
rhumerus -300.185 12.6736 -327.43
rradius 41.3336
rwrist -82.3636
rhand -45.8826 1061.52
rfingers 7.12502
rthumb -18.6328 -47.6075
lclavicle 1.13307e-013 -3.18055e-015
lhumerus 96.88 -7.94252 43.7337
lradius 27.6691
lwrist -138.536
lhand -21.4528 0.648433
lfingers 7.12502
lthumb 4.93714 30.5709
rfemur -4.15153 -10.391 21.6676
rtibia 54.4131
rfoot -8.35212 11.4923
rtoes 1.91717
lfemur 3.7733 6.61991 -7.76643
ltibia 48.8818
lfoot -13.4298 -10.0586
ltoes -1.93946
161
root -6.04989 16.6018 -3.73365 149.299 -42.0956 -167.982
lowerback 16.2062 -3.43572 -0.638218
upperback 4.39266 -4.99874 0.921795
thorax -4.23617 -2.64173 2.3121
lowerneck 5.79473 -14.755 -11.787
upperneck -4.98715 -20.467 15.8923
head 0.477997 -10.5867 6.34496
rclavicle -5.22804e-014 1.74931e-014
rhumerus -300.413 11.8299 -329.576
rradius 41.2657
rwrist -80.5641
rhand -45.7415 1061.62
rfingers 7.12502
rthumb -18.4971 -47.5181
lclavicle -5.22804e-014 1.74931e-014
lhumerus 96.3315 -7.76596 43.6045
lradius 28.5397
lwrist -139.533
lhand -20.8373 1.64771
lfingers 7.12502
lthumb 5.53142 31.5555
rfemur -4.21158 -11.2756 21.2048
rtibia 56.8291
rfoot -12.534 12.3459
rtoes 4.78355
lfemur 3.56024 7.0043 -7.60236
ltibia 51.6459
lfoot -17.8097 -10.6824
ltoes 0.652524
162
root -6.02132 16.3093 -3.73672 148.773 -41.7733 -168.207
lowerback 17.0891 -3.29098 -0.662753
upperback 4.62226 -4.85525 0.936561
thorax -4.46544 -2.58702 2.37071
lowerneck 6.53362 -14.7063 -11.6104
upperneck -5.77588 -20.3792 15.9588
head 0.1078 -10.5832 6.45695
rclavicle 7.35503e-014 -1.35174e-014
rhumerus -300.603 10.9859 -332.181
rradius 41.1117
rwrist -78.1453
rhand -45.4777 1061.75
rfingers 7.12502
rthumb -18.2433 -47.4128
lclavicle 7.35503e-014 -1.35174e-014
lhumerus 95.6018 -7.77206 43.8014
lradius 29.4548
lwrist -140.525
lhand -20.0704 2.85048
lfingers 7.12502
lthumb 6.27185 32.7376
rfemur -4.3012 -12.2197 20.806
rtibia 59.1333
rfoot -16.0258 12.7469
rtoes 7.1908
lfemur 3.22137 7.22684 -7.48519
ltibia 54.4384
lfoot -21.6908 -11.1834
ltoes 2.13684
163
root -5.99028 16.0429 -3.73582 148.274 -41.4555 -168.415
lowerback 17.9284 -3.14349 -0.692089
upperback 4.83504 -4.70939 0.947392
thorax -4.68661 -2.53103 2.4222
lowerneck 7.20789 -14.6937 -11.3197
upperneck -6.49686 -20.3279 15.9104
head -0.251924 -10.5919 6.51261
rclavicle 5.26779e-014 1.27222e-014
rhumerus -300.809 10.179 -335.391
rradius 40.9018
rwrist -75.0156
rhand -45.0876 1061.71
rfingers 7.12502
rthumb -17.868 -47.4907
lclavicle 5.26779e-014 1.27222e-014
lhumerus 94.7536 -7.93275 44.0565
lradius 30.4207
lwrist -141.271
lhand -19.2135 4.24178
lfingers 7.12502
lthumb 7.09911 34.1027
rfemur -4.4843 -13.0755 20.5312
rtibia 61.3003
rfoot -18.8436 12.6601
rtoes 9.61065
lfemur 2.7762 7.36486 -7.36647
ltibia 57.2268
lfoot -24.9191 -11.6187
ltoes 2.71919
164
root -5.96127 15.8072 -3.73217 147.877 -41.1435 -168.593
lowerback 18.6474 -3.0219 -0.623256
upperback 5.03421 -4.57886 0.93365
thorax -4.86506 -2.48273 2.38511
lowerneck 7.59933 -14.7758 -10.8512
upperneck -6.98749 -20.3803 15.622
head -0.530764 -10.6324 6.43613
rclavicle -1.35174e-014 -1.98785e-014
rhumerus -301.012 9.37381 -339.031
rradius 40.6301
rwrist -71.347
rhand -44.5256 1061.71
rfingers 7.12502
rthumb -17.3271 -47.5351
lclavicle -1.35174e-014 -1.98785e-014
lhumerus 93.8689 -8.08393 44.1635
lradius 31.4699
lwrist -141.51
lhand -18.446 5.60733
lfingers 7.12502
lthumb 7.83993 35.442
rfemur -4.79672 -13.7468 20.3815
rtibia 63.2853
rfoot -21.1551 12.3958
rtoes 10.8671
lfemur 2.19856 7.48885 -7.25167
ltibia 59.9434
lfoot -27.4985 -11.9961
ltoes 2.97348
165
root -5.93278 15.5901 -3.7257 147.504 -40.8609 -168.754
lowerback 19.3621 -2.92318 -0.540218
upperback 5.21517 -4.47464 0.919332
thorax -5.058 -2.44701 2.34361
lowerneck 7.73826 -14.9119 -10.2904
upperneck -7.27218 -20.4931 15.1626
head -0.730706 -10.6857 6.26469
rclavicle -6.75868e-014 2.22639e-014
rhumerus -301.17 8.63874 -342.8
rradius 40.4069
rwrist -67.4381
rhand -43.8624 1061.73
rfingers 7.12502
rthumb -16.6888 -47.5676
lclavicle -6.75868e-014 2.22639e-014
lhumerus 92.8926 -8.26166 44.291
lradius 32.5784
lwrist -141.412
lhand -17.9527 6.89559
lfingers 7.12502
lthumb 8.31597 36.7119
rfemur -5.20604 -14.2986 20.3176
rtibia 65.1279
rfoot -23.1147 11.9594
rtoes 10.582
lfemur 1.55141 7.68956 -7.07186
ltibia 62.5871
lfoot -29.4961 -12.3526
ltoes 3.2879
166
root -5.90417 15.4002 -3.71804 147.115 -40.5401 -168.891
lowerback 20.0542 -2.80691 -0.42041
upperback 5.41296 -4.34237 0.911541
thorax -5.22136 -2.40005 2.27751
lowerneck 7.85039 -15.0373 -9.77309
upperneck -7.62379 -20.5932 14.8442
head -0.928297 -10.7395 6.14142
rclavicle 5.08889e-014 1.66979e-014
rhumerus -301.336 7.96501 -346.678
rradius 40.241
rwrist -63.4251
rhand -43.1371 1061.89
rfingers 7.12502
rthumb -15.9904 -47.468
lclavicle 5.08889e-014 1.66979e-014
lhumerus 91.851 -8.47641 44.3823
lradius 33.7944
lwrist -141.019
lhand -17.6974 8.10059
lfingers 7.12502
lthumb 8.5624 37.907
rfemur -5.61542 -14.6202 20.4309
rtibia 66.7428
rfoot -24.743 11.1352
rtoes 9.24603
lfemur 0.935751 8.00769 -6.74732
ltibia 65.0734
lfoot -31.0747 -12.7809
ltoes 3.85243
167
root -5.8763 15.2413 -3.70767 146.762 -40.2773 -169.058
lowerback 20.7304 -2.69927 -0.338295
upperback 5.60863 -4.22904 0.90074
thorax -5.3726 -2.36284 2.23073
lowerneck 7.91627 -15.121 -9.36348
upperneck -8.00999 -20.6453 14.7138
head -1.10297 -10.7766 6.08395
rclavicle 8.60241e-014 -4.13472e-014
rhumerus -301.506 7.42505 -350.244
rradius 40.266
rwrist -59.7986
rhand -42.5084 1062.32
rfingers 7.12502
rthumb -15.3849 -47.0898
lclavicle 8.60241e-014 -4.13472e-014
lhumerus 90.7112 -8.68638 44.3688
lradius 35.1724
lwrist -140.374
lhand -17.7075 9.11795
lfingers 7.12502
lthumb 8.55258 38.9247
rfemur -5.96646 -14.7561 20.5875
rtibia 68.1165
rfoot -26.0756 10.1032
rtoes 7.51159
lfemur 0.357817 8.24258 -6.49102
ltibia 67.2995
lfoot -32.1845 -13.2954
ltoes 4.98778
168
root -5.84894 15.117 -3.69612 146.412 -39.9973 -169.168
lowerback 21.3302 -2.6001 -0.221498
upperback 5.79712 -4.11735 0.89865
thorax -5.49088 -2.32684 2.16742
lowerneck 8.05715 -15.159 -8.9591
upperneck -8.47803 -20.6378 14.7081
head -1.30644 -10.7953 6.07695
rclavicle -1.963e-014 -4.77083e-015
rhumerus -301.775 7.11966 -354.189
rradius 40.3988
rwrist -55.8358
rhand -41.9092 1062.99
rfingers 7.12502
rthumb -14.8077 -46.4579
lclavicle -1.963e-014 -4.77083e-015
lhumerus 89.3891 -9.07708 44.6485
lradius 36.7144
lwrist -140.068
lhand -18.0404 9.89737
lfingers 7.12502
lthumb 8.23133 39.717
rfemur -6.20742 -14.4976 20.9151
rtibia 69.1785
rfoot -27.0851 9.05365
rtoes 6.44648
lfemur -0.139241 8.30658 -6.27313
ltibia 69.1699
lfoot -32.6939 -13.7941
ltoes 6.7087
169
root -5.8209 15.0244 -3.68397 146.16 -39.7462 -169.336
lowerback 21.8206 -2.48736 -0.184712
upperback 5.99642 -4.00458 0.89371
thorax -5.53379 -2.29102 2.1367
lowerneck 8.17019 -15.1819 -8.58184
upperneck -8.99022 -20.608 14.7882
head -1.50888 -10.8086 6.09821
rclavicle 1.67476e-014 -2.06736e-014
rhumerus -302.152 7.02114 -358.585
rradius 40.626
rwrist -51.5796
rhand -41.4114 1064.04
rfingers 7.12502
rthumb -14.3281 -45.4503
lclavicle 1.67476e-014 -2.06736e-014
lhumerus 87.8606 -9.62627 45.2253
lradius 38.4508
lwrist -140.078
lhand -18.6481 10.4805
lfingers 7.12502
lthumb 7.64483 40.3223
rfemur -6.39484 -13.9112 21.2876
rtibia 69.9753
rfoot -27.9217 8.12107
rtoes 5.9038
lfemur -0.523617 8.21826 -6.22774
ltibia 70.608
lfoot -32.9255 -14.0867
ltoes 7.98845
